HIERARCHY
ROOT hip
{
	OFFSET 0.000000 0.000000 0.000000 
	CHANNELS 6 Xposition Yposition Zposition Xrotation Zrotation Yrotation
	JOINT abdomen
	{
		OFFSET 0.000000 3.402643 0.000000 
		CHANNELS 3 Xrotation Zrotation Yrotation
		JOINT chest
		{
			OFFSET 0.000000 8.438565 -0.680529 
			CHANNELS 3 Xrotation Zrotation Yrotation
			JOINT neck
			{
				OFFSET 0.000000 10.207942 -0.272212 
				CHANNELS 3 Xrotation Zrotation Yrotation
				JOINT head
				{
					OFFSET 0.000000 3.130431 0.000000 
					CHANNELS 3 Xrotation Zrotation Yrotation
					End Site
					{
						OFFSET 0.000000 3.130435 0.000000 
					}
				}
			}
			JOINT lCollar
			{
				OFFSET 3.470700 6.669187 -0.816635 
				CHANNELS 3 Yrotation Zrotation Xrotation
				JOINT lShldr
				{
					OFFSET 3.198488 0.000000 0.000000 
					CHANNELS 3 Zrotation Yrotation Xrotation
					JOINT lForeArm
					{
						OFFSET 10.139888 0.000000 0.000000 
						CHANNELS 3 Yrotation Zrotation Xrotation
						JOINT lHand
						{
							OFFSET 8.370511 0.000000 0.000000 
							CHANNELS 3 Zrotation Yrotation Xrotation
							End Site
							{
								OFFSET 4.083176 0.000000 0.000000 
							}
						}
					}
				}
			}
			JOINT rCollar
			{
				OFFSET -3.470700 6.669187 -0.816635 
				CHANNELS 3 Yrotation Zrotation Xrotation
				JOINT rShldr
				{
					OFFSET -3.198488 0.000000 0.000000 
					CHANNELS 3 Zrotation Yrotation Xrotation
					JOINT rForeArm
					{
						OFFSET -10.139888 0.000000 0.000000 
						CHANNELS 3 Yrotation Zrotation Xrotation
						JOINT rHand
						{
							OFFSET -8.370511 0.000000 0.000000 
							CHANNELS 3 Zrotation Yrotation Xrotation
							End Site
							{
								OFFSET -4.083176 0.000000 0.000000 
							}
						}
					}
				}
			}
		}
	}
	JOINT lThigh
	{
		OFFSET 5.308129 -1.633274 1.361059 
		CHANNELS 3 Xrotation Zrotation Yrotation
		JOINT lShin
		{
			OFFSET -2.041588 -20.007561 0.000000 
			CHANNELS 3 Xrotation Zrotation Yrotation
			JOINT lFoot
			{
				OFFSET 0.000000 -19.190928 -1.224953 
				CHANNELS 3 Xrotation Yrotation Zrotation
				End Site
				{
					OFFSET 0.000000 -2.449906 4.627600 
				}
			}
		}
	}
	JOINT rThigh
	{
		OFFSET -5.308129 -1.633274 1.361059 
		CHANNELS 3 Xrotation Zrotation Yrotation
		JOINT rShin
		{
			OFFSET 2.041588 -20.007561 0.000000 
			CHANNELS 3 Xrotation Zrotation Yrotation
			JOINT rFoot
			{
				OFFSET 0.000000 -19.190928 -1.224953 
				CHANNELS 3 Xrotation Yrotation Zrotation
				End Site
				{
					OFFSET 0.000000 -2.449906 4.627600 
				}
			}
		}
	}
}
MOTION
Frames: 11
Frame Time: 0.033333
3.450237 48.306416 -5.802622 4.443359 -1.083984 -3.906250 10.370376 -8.712459 -6.345483 -16.523438 12.050781 3.056641 -10.034345 -1.969826 -4.473288 5.019532 -2.001953 -4.502295 2.000000 -2.000000 0.000000 -11.308593 3.095703 -39.628376 -22.514587 -0.918256 2.572326 9.457284 13.756083 33.587074 -2.000000 2.000000 0.000000 10.292970 10.878907 -55.505970 14.274048 1.020439 2.500077 -15.345905 -0.563215 25.990400 -11.402591 10.884904 2.641670 29.013912 -3.451706 3.708076 -21.026548 0.067775 -11.387503 -12.401524 -11.717866 -3.079885 27.480225 3.534987 3.499385 -8.833178 -0.700768 8.169321 
3.483461 48.324661 -5.792427 4.072266 -0.986328 -3.750167 10.370376 -8.712459 -6.345483 -16.132813 11.953125 3.144531 -10.014226 -1.997877 -4.528313 5.126953 -2.001953 -4.560548 2.000000 -2.000000 0.000000 -11.425781 2.490234 -40.077698 -22.123962 -0.918256 2.572326 9.561111 13.952333 34.850571 -2.000000 2.000000 0.000000 10.273437 10.781250 -55.624996 14.293579 1.020439 2.500077 -15.337028 -0.504484 26.166746 -11.001403 10.688740 2.589309 28.862713 -3.467480 3.667122 -20.956034 0.015961 -11.337318 -11.860094 -11.908377 -3.295208 27.248020 3.544042 3.621118 -8.781537 -0.700705 8.178953 
3.502714 48.330456 -5.800986 3.906250 -0.947266 -3.740396 10.370376 -8.712459 -6.345483 -15.927736 11.904297 3.203125 -10.025033 -1.964000 -4.434664 5.205078 -1.972656 -4.472657 2.000000 -2.000000 0.000000 -11.503906 2.148438 -40.419926 -21.870283 -0.909096 2.561992 9.723375 14.061238 35.493172 -2.000000 2.000000 0.000000 10.273438 10.927734 -55.779404 14.274048 1.020439 2.500077 -15.424866 -0.496016 26.415619 -10.797041 10.611300 2.537729 28.822817 -3.481865 3.695712 -20.908306 0.030404 -11.337872 -11.689073 -11.991720 -3.318616 27.206192 3.544729 3.685894 -8.758457 -0.695182 8.191857 
3.510139 48.324158 -5.819106 3.632813 -1.064453 -3.906250 10.370376 -8.712459 -6.345483 -15.546875 12.050783 3.234461 -10.006877 -1.884212 -4.298556 5.283203 -2.001953 -4.306641 2.000000 -2.000000 0.000000 -11.552734 2.080078 -40.780899 -21.606611 -0.909096 2.561992 9.480916 14.303190 36.278404 -2.000000 2.000000 0.000000 10.166015 11.103515 -55.605465 14.244749 1.020439 2.500077 -15.548902 -0.673665 26.213028 -10.542727 10.718160 2.609064 28.926989 -3.437309 3.717942 -20.952375 0.044269 -11.398311 -11.518403 -11.879069 -3.259095 27.281301 3.544394 3.798264 -8.697766 -0.678139 8.166222 
3.514041 48.333977 -5.820113 3.339844 -1.113281 -4.023640 10.370376 -8.712459 -6.345483 -15.146484 12.089844 3.293061 -9.988502 -1.837760 -4.187051 5.351563 -1.972656 -4.169922 2.000000 -2.000000 0.000000 -11.523438 2.128906 -41.005856 -21.323408 -0.909096 2.561992 8.874989 14.405392 37.155296 -2.000000 2.000000 0.000000 9.892579 10.429688 -54.461124 14.537716 1.020438 2.500077 -15.043303 -1.271760 25.020649 -10.145798 10.731647 2.530428 28.792484 -3.466962 3.895890 -20.908783 0.012960 -11.392975 -11.216166 -11.859846 -3.240800 27.217911 3.558254 3.874761 -8.600716 -0.629846 8.132948 
3.515299 48.330708 -5.851699 3.183594 -1.142578 -4.287304 10.370376 -8.712459 -6.345483 -14.853517 12.187499 3.320313 -9.980036 -1.757966 -4.050943 5.302734 -1.972656 -4.013672 2.000000 -2.000000 0.000000 -11.484375 2.382813 -41.142178 -21.108782 -0.909684 2.552247 8.356023 14.459813 37.783146 -2.000000 2.000000 0.000000 9.658202 9.814453 -53.281246 14.986728 1.010103 2.509236 -14.354100 -1.818724 23.946274 -9.980934 10.762138 2.453473 28.782431 -3.479002 4.185498 -20.864815 0.032942 -11.524757 -11.278102 -11.824767 -3.162107 27.407700 3.544560 4.137757 -8.546963 -0.661649 8.063126 
3.515802 48.325924 -5.886936 3.164063 -1.191395 -4.424072 10.370376 -8.712459 -6.345483 -14.746093 12.275391 3.312623 -9.969796 -1.774908 -4.097768 5.312500 -2.050781 -4.033553 2.000000 -2.000000 0.000000 -11.533203 2.490234 -41.278870 -20.962297 -0.909684 2.552247 8.106871 14.399313 38.200279 -2.000000 2.000000 0.000000 9.501953 9.560547 -52.693691 15.123447 1.010103 2.509236 -13.942666 -2.018237 23.442490 -9.989915 10.800280 2.404939 28.800518 -3.461591 4.353562 -20.829044 0.044884 -11.583378 -11.419860 -11.780413 -3.079373 27.523960 3.534649 4.231383 -8.496785 -0.646780 8.036766 
3.515551 48.307549 -5.929472 3.310547 -1.142578 -4.521679 10.370376 -8.712459 -6.345483 -14.814453 12.246094 3.310431 -9.979082 -1.791850 -4.144592 5.361329 -2.158203 -4.072634 2.000000 -2.000000 0.000000 -11.582032 2.734375 -41.220699 -21.186916 -0.899936 2.551658 8.077679 14.447925 38.221474 -2.000000 2.000000 0.000000 9.423828 9.726563 -52.705078 14.938108 1.020439 2.500077 -13.902189 -2.134895 23.405661 -10.263803 10.752035 2.338925 28.973030 -3.470192 4.504795 -20.820486 0.025804 -11.627916 -11.806308 -11.825785 -3.075687 27.813805 3.544087 4.380816 -8.572669 -0.630226 7.970991 
3.505735 48.306416 -5.964834 3.476562 -1.142578 -4.453125 10.370376 -8.712459 -6.345483 -14.882813 12.275390 3.300782 -9.978582 -1.829561 -4.198162 5.410156 -2.236328 -4.121094 2.000000 -2.000000 0.000000 -11.484375 2.919922 -40.820057 -21.450579 -0.909684 2.552247 8.028125 14.642872 37.716442 -2.000000 2.000000 0.000000 9.306641 9.873047 -52.869419 14.625610 1.020439 2.500077 -13.941751 -2.086590 23.510841 -10.511976 10.784920 2.332807 29.089342 -3.453093 4.403089 -20.803751 0.033189 -11.611688 -11.948413 -11.801545 -3.119979 27.806822 3.524841 4.356377 -8.526117 -0.653262 7.980625 
3.483963 48.299370 -6.003466 3.681640 -1.142578 -4.482423 10.370376 -8.712459 -6.345483 -15.029297 12.324219 3.263803 -9.987748 -1.847959 -4.254642 5.488281 -2.255859 -4.169923 2.000000 -2.000000 0.000000 -11.210938 3.164063 -40.468746 -21.430830 -0.909096 2.561992 7.633552 14.776742 37.065193 -2.000000 2.000000 0.000000 9.189452 9.736328 -52.705074 14.684201 1.020439 2.500077 -13.638651 -2.199783 23.479427 -10.865141 10.845365 2.352153 29.264933 -3.462989 4.378110 -20.791229 0.023532 -11.695519 -12.269414 -11.780825 -3.217712 27.899382 3.535078 4.501124 -8.551825 -0.632120 7.905138 
3.463451 48.285400 -6.036815 3.759766 -1.113281 -4.375205 10.370376 -8.712459 -6.345483 -15.009766 12.353516 3.261719 -9.986335 -1.918092 -4.392205 5.566406 -2.285156 -4.316406 2.000000 -2.000000 0.000000 -11.074219 3.134766 -40.194778 -21.479660 -0.909096 2.561992 7.919018 15.091298 36.284477 -2.000000 2.000000 0.000000 8.984375 9.707031 -52.820618 14.488889 1.020439 2.500077 -13.618814 -2.228823 23.255941 -11.060807 10.865366 2.385989 29.417772 -3.437786 4.178253 -20.790165 0.023158 -11.628285 -12.401992 -11.796454 -3.331477 28.039330 3.524672 4.479998 -8.633095 -0.625406 7.888502 
